<svg width="36" height="35" viewBox="0 0 36 35" fill="none" xmlns="http://www.w3.org/2000/svg">
<g id="mage:behance">
<path id="Vector" d="M11.3112 16.1978V13.8572C11.3112 13.7186 11.3112 13.6632 11.4921 13.6632C13.0423 13.6632 14.3023 13.5714 14.9279 13.9403C15.555 14.3078 15.5812 14.8153 15.5915 14.967C15.6017 15.1186 15.5973 15.3359 15.3056 15.8653C15.014 16.3947 13.7087 16.4049 12.7667 16.4049H11.5198C11.3667 16.4049 11.3112 16.3495 11.3112 16.1978ZM15.6075 18.6507C15.7519 18.8351 15.855 19.0484 15.9098 19.2761C15.9646 19.5038 15.9697 19.7407 15.9249 19.9705C15.8801 20.2004 15.7864 20.418 15.6501 20.6085C15.5138 20.7989 15.3381 20.9579 15.135 21.0745C14.8366 21.2 14.5166 21.2659 14.1929 21.2684H11.5052C11.3667 21.2684 11.3112 21.2684 11.3112 21.0891V18.3182C11.3112 18.1797 11.3112 18.1243 11.4921 18.1243H13.2785C14.3869 18.1243 15.0796 18.028 15.6075 18.6507Z" fill="#98605E"/>
<path id="Vector_2" d="M25.3623 17.3672C25.288 17.192 25.1752 17.0358 25.0323 16.91C24.8895 16.7843 24.7201 16.6924 24.5369 16.641C24.1706 16.5409 23.7872 16.5197 23.4122 16.5788C23.0371 16.6378 22.6788 16.7759 22.361 16.9837C22.0443 17.3037 21.8397 17.7175 21.7777 18.1635C21.7777 18.3195 21.7777 18.3487 21.9629 18.3487H25.4192C25.5898 18.3487 25.5898 18.3487 25.5752 18.1343C25.5589 17.8663 25.4873 17.6048 25.3623 17.3672ZM25.3623 17.3672C25.288 17.192 25.1738 17.0358 25.0309 16.91C24.888 16.7843 24.7201 16.6924 24.5369 16.641C24.1706 16.5409 23.7872 16.5197 23.4122 16.5788C23.0371 16.6378 22.6788 16.7759 22.361 16.9837C22.0443 17.3037 21.8382 17.7175 21.7762 18.1635C21.7762 18.3195 21.7762 18.3487 21.9615 18.3487H25.4192C25.5898 18.3487 25.5898 18.3487 25.5752 18.1343C25.5589 17.8663 25.4843 17.6048 25.3594 17.3672M26.9825 3.64575H9.92C8.41158 3.64575 6.96494 4.24497 5.89833 5.31158C4.83172 6.3782 4.2325 7.82483 4.2325 9.33325V26.3958C4.2325 27.9042 4.83172 29.3508 5.89833 30.4174C6.96494 31.484 8.41158 32.0833 9.92 32.0833H26.9825C28.4909 32.0833 29.9376 31.484 31.0042 30.4174C32.0708 29.3508 32.67 27.9042 32.67 26.3958V9.33325C32.67 7.82483 32.0708 6.3782 31.0042 5.31158C29.9376 4.24497 28.4909 3.64575 26.9825 3.64575ZM21.4087 12.702C21.4087 12.5897 21.4087 12.546 21.5371 12.546H26.144V13.7418C26.144 13.7418 26.1483 13.8264 26.0725 13.8264H21.6085C21.4087 13.8264 21.4087 13.8264 21.4087 13.628V12.702ZM17.1431 23.1539C15.3931 24.1062 12.4517 23.7226 8.96771 23.7226V11.9349H14.5269C15.9487 11.9349 17.6404 12.2908 18.0954 13.7972C18.3317 14.4552 18.3173 15.1771 18.055 15.8252C17.7927 16.4732 17.3009 17.0019 16.6735 17.3103C17.2518 17.5243 17.7567 17.8995 18.1285 18.3915C18.5002 18.8835 18.7232 19.4717 18.771 20.0865C18.8189 20.7013 18.6897 21.3169 18.3986 21.8605C18.1075 22.4041 17.6668 22.8529 17.1285 23.1539H17.1431ZM27.7365 19.7983H22.049C21.8929 19.7983 21.75 19.8828 21.7777 20.0826C21.9483 20.9212 22.3319 21.8035 23.201 21.9318C23.66 22.0684 24.1514 22.0474 24.5971 21.8721C25.0427 21.6969 25.4168 21.3775 25.6598 20.9649C25.6598 20.9649 25.7312 20.8789 25.7735 20.8789H27.6227C27.6227 20.8789 27.7365 20.8789 27.7073 20.978C27.5123 21.5302 27.2237 22.0448 26.8542 22.4991C26.3599 22.9712 25.7636 23.323 25.1114 23.5273C24.4592 23.7316 23.7686 23.7828 23.0934 23.677C22.4182 23.5712 21.7764 23.3113 21.2179 22.9173C20.6595 22.5233 20.1993 22.0059 19.8731 21.4053C19.6725 21.0048 19.5474 20.5708 19.5042 20.1249C19.2505 19.0043 19.4444 17.829 20.0445 16.8492C20.6445 15.8694 21.6034 15.1626 22.7169 14.8793C25.9442 14.1822 27.9917 16.4003 27.9917 19.5285C27.9964 19.565 27.9928 19.6022 27.9809 19.6371C27.969 19.672 27.9493 19.7037 27.9232 19.7298C27.8971 19.7559 27.8654 19.7756 27.8305 19.7875C27.7956 19.7993 27.7584 19.803 27.7219 19.7983H27.7365ZM24.5515 16.641C24.1855 16.5395 23.8019 16.5186 23.4271 16.5797C23.0523 16.638 22.7169 16.7095 22.3756 16.9837C22.0344 17.2564 21.8535 17.7172 21.7923 18.1635C21.7923 18.3195 21.7923 18.3487 21.9775 18.3487H25.4192C25.5898 18.3487 25.5898 18.3487 25.5752 18.1343C25.5589 17.8663 25.4873 17.6048 25.3623 17.3672C25.288 17.192 25.1752 17.0358 25.0323 16.91C24.8895 16.7843 24.7201 16.6924 24.5369 16.641H24.5515Z" fill="#98605E"/>
</g>
</svg>
