<svg width="29" height="33" viewBox="0 0 29 33" fill="none" xmlns="http://www.w3.org/2000/svg">
<g id="fa6-brands:square-facebook" clip-path="url(#clip0_209_267)">
<path id="Vector" d="M4.1275 2.0625C1.85231 2.0625 0.00250244 3.9123 0.00250244 6.1875V26.8125C0.00250244 29.0877 1.85231 30.9375 4.1275 30.9375H10.4568V21.5402H7.05367V16.5H10.4568V14.3279C10.4568 8.71406 12.9963 6.11016 18.5134 6.11016C19.5576 6.11016 21.3623 6.31641 22.1035 6.52266V11.0859C21.7168 11.0473 21.04 11.0215 20.1957 11.0215C17.4886 11.0215 16.4445 12.0463 16.4445 14.7082V16.5H21.8328L20.9046 21.5402H16.438V30.9375H24.7525C27.0277 30.9375 28.8775 29.0877 28.8775 26.8125V6.1875C28.8775 3.9123 27.0277 2.0625 24.7525 2.0625H4.1275Z" fill="#98605E"/>
</g>
<defs>
<clipPath id="clip0_209_267">
<rect width="28.88" height="33" fill="white"/>
</clipPath>
</defs>
</svg>
