<svg width="36" height="35" viewBox="0 0 36 35" fill="none" xmlns="http://www.w3.org/2000/svg">
<g id="ri:instagram-fill">
<path id="Vector" d="M19.2925 2.91675C20.9331 2.92112 21.7658 2.92987 22.4848 2.95029L22.7677 2.9605C23.0944 2.97216 23.4167 2.98675 23.806 3.00425C25.3577 3.07716 26.4165 3.32216 27.3454 3.68237C28.3079 4.05279 29.1187 4.55446 29.9296 5.36383C30.6714 6.09261 31.2453 6.97452 31.611 7.948C31.9712 8.87696 32.2162 9.93571 32.2892 11.4888C32.3067 11.8767 32.3212 12.199 32.3329 12.5272L32.3417 12.8101C32.3635 13.5276 32.3723 14.3603 32.3752 16.0009L32.3767 17.0888V18.9992C32.3802 20.063 32.369 21.1267 32.3431 22.1901L32.3344 22.473C32.3227 22.8011 32.3081 23.1234 32.2906 23.5113C32.2177 25.0645 31.9698 26.1217 31.611 27.0522C31.2453 28.0256 30.6714 28.9076 29.9296 29.6363C29.2008 30.3782 28.3189 30.952 27.3454 31.3178C26.4165 31.678 25.3577 31.923 23.806 31.9959L22.7677 32.0397L22.4848 32.0484C21.7658 32.0688 20.9331 32.079 19.2925 32.082L18.2046 32.0834H16.2956C15.2314 32.0872 14.1672 32.076 13.1033 32.0499L12.8204 32.0411C12.4742 32.028 12.1281 32.0129 11.7821 31.9959C10.2304 31.923 9.17166 31.678 8.24125 31.3178C7.26829 30.9518 6.38689 30.378 5.65854 29.6363C4.91617 28.9077 4.34182 28.0258 3.97562 27.0522C3.61541 26.1232 3.37041 25.0645 3.2975 23.5113L3.25375 22.473L3.24646 22.1901C3.21957 21.1267 3.20742 20.063 3.21 18.9992V16.0009C3.20596 14.9372 3.21666 13.8735 3.24208 12.8101L3.25229 12.5272C3.26396 12.199 3.27854 11.8767 3.29604 11.4888C3.36896 9.93571 3.61396 8.87841 3.97416 7.948C4.34122 6.97412 4.91657 6.09218 5.66 5.36383C6.38793 4.62234 7.26881 4.04852 8.24125 3.68237C9.17166 3.32216 10.229 3.07716 11.7821 3.00425C12.17 2.98675 12.4937 2.97216 12.8204 2.9605L13.1033 2.95175C14.1667 2.92584 15.2304 2.91466 16.2942 2.91821L19.2925 2.91675ZM17.7933 10.2084C15.8595 10.2084 14.0048 10.9766 12.6373 12.3441C11.2699 13.7115 10.5017 15.5662 10.5017 17.5001C10.5017 19.434 11.2699 21.2886 12.6373 22.6561C14.0048 24.0235 15.8595 24.7917 17.7933 24.7917C19.7272 24.7917 21.5819 24.0235 22.9493 22.6561C24.3168 21.2886 25.085 19.434 25.085 17.5001C25.085 15.5662 24.3168 13.7115 22.9493 12.3441C21.5819 10.9766 19.7272 10.2084 17.7933 10.2084ZM17.7933 13.1251C18.3679 13.125 18.9368 13.2381 19.4676 13.4578C19.9985 13.6776 20.4808 13.9998 20.8871 14.406C21.2935 14.8122 21.6158 15.2944 21.8358 15.8252C22.0557 16.3559 22.169 16.9248 22.1691 17.4994C22.1692 18.0739 22.0561 18.6428 21.8363 19.1736C21.6165 19.7045 21.2944 20.1868 20.8882 20.5932C20.482 20.9995 19.9997 21.3218 19.469 21.5418C18.9382 21.7617 18.3693 21.875 17.7948 21.8751C16.6345 21.8751 15.5217 21.4141 14.7012 20.5937C13.8807 19.7732 13.4198 18.6604 13.4198 17.5001C13.4198 16.3398 13.8807 15.227 14.7012 14.4065C15.5217 13.586 16.6345 13.1251 17.7948 13.1251M25.451 8.02092C24.9676 8.02092 24.5039 8.21297 24.162 8.55483C23.8202 8.8967 23.6281 9.36036 23.6281 9.84383C23.6281 10.3273 23.8202 10.791 24.162 11.1328C24.5039 11.4747 24.9676 11.6667 25.451 11.6667C25.9345 11.6667 26.3982 11.4747 26.74 11.1328C27.0819 10.791 27.274 10.3273 27.274 9.84383C27.274 9.36036 27.0819 8.8967 26.74 8.55483C26.3982 8.21297 25.9345 8.02092 25.451 8.02092Z" fill="#98605E"/>
</g>
</svg>
