<svg width="35" height="35" viewBox="0 0 35 35" fill="none" xmlns="http://www.w3.org/2000/svg">
<g id="mingcute:whatsapp-fill">
<g id="Group">
<path id="Vector" fill-rule="evenodd" clip-rule="evenodd" d="M17.5 2.91675C9.44562 2.91675 2.91666 9.44571 2.91666 17.5001C2.91666 20.2563 3.68228 22.8376 5.01374 25.0367L3.71291 29.4584C3.63822 29.7123 3.6333 29.9816 3.69868 30.238C3.76406 30.4944 3.89731 30.7285 4.08443 30.9156C4.27155 31.1028 4.50563 31.236 4.76206 31.3014C5.01848 31.3668 5.28779 31.3619 5.54166 31.2872L9.96332 29.9863C12.2365 31.3615 14.8433 32.0868 17.5 32.0834C25.5544 32.0834 32.0833 25.5545 32.0833 17.5001C32.0833 9.44571 25.5544 2.91675 17.5 2.91675ZM14.2012 20.8003C17.1514 23.749 19.9675 24.1384 20.9621 24.1749C22.4744 24.2303 23.9473 23.0753 24.5204 21.7351C24.5921 21.5682 24.6181 21.3853 24.5955 21.205C24.573 21.0248 24.5027 20.8539 24.3921 20.7099C23.5929 19.689 22.5123 18.9555 21.4564 18.2263C21.2361 18.0735 20.9651 18.0122 20.7005 18.0552C20.4358 18.0981 20.1982 18.2421 20.0375 18.4567L19.1625 19.7911C19.1163 19.8626 19.0446 19.9138 18.962 19.9344C18.8794 19.955 18.7921 19.9434 18.7177 19.902C18.1242 19.5622 17.2594 18.9847 16.6381 18.3634C16.0169 17.7422 15.4744 16.9167 15.1696 16.3611C15.1327 16.2903 15.1223 16.2087 15.1402 16.1309C15.1581 16.0531 15.2032 15.9843 15.2673 15.9367L16.6148 14.9363C16.8076 14.7695 16.9322 14.5373 16.9644 14.2844C16.9967 14.0314 16.9345 13.7754 16.7898 13.5655C16.1364 12.6088 15.3752 11.3926 14.2712 10.5861C14.1285 10.4835 13.9616 10.4196 13.7869 10.4004C13.6121 10.3812 13.4354 10.4075 13.2737 10.4767C11.9321 11.0513 10.7712 12.5242 10.8267 14.0395C10.8631 15.034 11.2525 17.8501 14.2012 20.8003Z" fill="#98605E"/>
</g>
</g>
</svg>
